<mxfile host="app.diagrams.net" modified="2023-09-11T13:53:59.699Z" agent="Mozilla/5.0 (Windows NT 10.0; Win64; x64) AppleWebKit/537.36 (KHTML, like Gecko) Chrome/116.0.0.0 Safari/537.36 Edg/116.0.1938.69" etag="dzBbsjfsJi733SnnPDpU" version="21.7.4" type="github">
  <diagram id="R2lEEEUBdFMjLlhIrx00" name="Page-1">
    <mxGraphModel dx="1426" dy="1885" grid="1" gridSize="10" guides="1" tooltips="1" connect="1" arrows="1" fold="1" page="1" pageScale="1" pageWidth="850" pageHeight="1100" math="0" shadow="0" extFonts="Permanent Marker^https://fonts.googleapis.com/css?family=Permanent+Marker">
      <root>
        <mxCell id="0" />
        <mxCell id="1" parent="0" />
        <mxCell id="adF5d4ZAmyr8IWEaQVo5-3" style="graphMlID=entity0;gradientDirection=east;shape=swimlane;startSize=30;rounded=1;arcSize=5;collapsible=0;fillColor=undefined;strokeColor=#c4c4c4;strokeWidth=1.0;swimlaneFillColor=#804020" vertex="1" parent="1">
          <mxGeometry x="40" y="-1040" width="340" height="180" as="geometry" />
        </mxCell>
        <mxCell id="adF5d4ZAmyr8IWEaQVo5-4" value="tbplano_de_curso_id integer primary key&lt;br&gt;tbfuncionarios_id integer foreign key&lt;br&gt;tbplano_de_curso_titulo string&amp;nbsp;&lt;br&gt;tbplano_de_curso_observacao longtext&lt;br&gt;created_at datetime&lt;br&gt;updated_at datetime&lt;br&gt;deleted_at datetime&lt;br&gt;tbperiododeavaliacao_id integer foreign key&lt;br&gt;tbplano_de_curso_areas_do_conhecimento string" style="text;html=1;spacing=0;align=left;fontFamily=courier;fontSize=12;fontStyle=0;=center;fontColor=#c4c4c4" vertex="1" parent="adF5d4ZAmyr8IWEaQVo5-3">
          <mxGeometry x="2" y="31.67" width="338" height="148.33" as="geometry" />
        </mxCell>
        <mxCell id="adF5d4ZAmyr8IWEaQVo5-5" value="tbplano_de_curso" style="text;html=1;spacing=0;align=center;fontFamily=courier;fontSize=12;fontStyle=0;=center;fontColor=#ffffff" vertex="1" parent="adF5d4ZAmyr8IWEaQVo5-3">
          <mxGeometry y="4" width="256" height="22" as="geometry" />
        </mxCell>
      </root>
    </mxGraphModel>
  </diagram>
</mxfile>
